<?xml version="1.0" standalone="no"?>
<!DOCTYPE svg PUBLIC "-//W3C//DTD SVG 20010904//EN"
 "http://www.w3.org/TR/2001/REC-SVG-20010904/DTD/svg10.dtd">
<svg version="1.0" xmlns="http://www.w3.org/2000/svg"
 width="3601.000000pt" height="1538.000000pt" viewBox="0 0 3601.000000 1538.000000"
 preserveAspectRatio="xMidYMid meet">
<metadata>
Created by potrace 1.16, written by Peter Selinger 2001-2019
</metadata>
<g transform="translate(0.000000,1538.000000) scale(0.100000,-0.100000)"
fill="#000000" stroke="none">
<path d="M4675 15373 c-570 -35 -1079 -193 -1575 -491 -447 -267 -885 -684
-1243 -1179 l-67 -93 123 0 122 0 23 63 c48 134 216 350 350 449 173 128 375
172 493 107 60 -34 83 -76 81 -156 -1 -110 -66 -225 -211 -375 l-84 -88 866 0
866 0 66 73 c36 40 121 123 188 185 479 438 984 694 1419 718 290 16 478 -91
636 -361 78 -133 145 -339 157 -483 3 -37 8 -82 11 -99 l5 -33 84 0 84 0 -5
33 c-32 194 -66 300 -149 472 -206 425 -591 835 -975 1039 -293 155 -821 246
-1265 219z"/>
<path d="M25555 15251 c-96 -8 -150 -35 -218 -111 -38 -42 -47 -60 -56 -112
-27 -160 -51 -513 -51 -763 0 -169 -11 -223 -57 -283 -28 -37 -28 -39 -31
-204 l-4 -168 734 0 735 0 6 113 c27 463 -29 1332 -94 1459 -37 73 -35 73
-484 74 -220 1 -436 -1 -480 -5z m546 -239 c64 -17 141 -42 173 -56 51 -23 59
-31 81 -78 43 -94 68 -245 69 -418 l1 -155 -37 1 c-92 3 -276 135 -420 303
-53 62 -132 150 -176 195 -203 212 -194 250 58 243 111 -3 155 -10 251 -35z"/>
<path d="M4370 12674 c0 -3 22 -34 48 -68 188 -238 342 -576 446 -980 14 -55
27 -100 29 -102 1 -2 30 29 62 69 82 98 172 168 290 227 159 80 226 94 445 94
173 0 190 -1 262 -26 139 -46 233 -125 258 -213 31 -110 -8 -279 -97 -428
-133 -221 -316 -368 -566 -453 -109 -37 -116 -39 -252 -39 -132 0 -144 2 -208
28 -38 16 -70 27 -71 25 -2 -1 3 -61 10 -133 76 -761 15 -1749 -163 -2650 -25
-126 -47 -244 -49 -261 -13 -103 -198 -777 -248 -904 l-14 -35 601 -265 c330
-146 603 -266 607 -268 8 -3 179 347 245 503 432 1013 714 2167 805 3300 41
519 27 1150 -35 1567 -8 54 -15 100 -15 102 0 2 -35 16 -77 31 -173 61 -388
175 -651 343 -482 311 -923 487 -1324 531 -104 12 -338 15 -338 5z"/>
</g>
</svg>
